<?xml version="1.0" encoding="UTF-8" standalone="no"?>
<svg
   width="64.012428"
   height="34.141991"
   viewBox="0 0 64.012428 34.141991"
   fill="none"
   version="1.1"
   id="svg18"
   sodipodi:docname="logo-light.svg"
   inkscape:version="1.4 (e7c3feb1, 2024-10-09)"
   xmlns:inkscape="http://www.inkscape.org/namespaces/inkscape"
   xmlns:sodipodi="http://sodipodi.sourceforge.net/DTD/sodipodi-0.dtd"
   xmlns="http://www.w3.org/2000/svg"
   xmlns:svg="http://www.w3.org/2000/svg">
  <defs
     id="defs18" />
  <sodipodi:namedview
     id="namedview18"
     pagecolor="#ffffff"
     bordercolor="#000000"
     borderopacity="0.25"
     inkscape:showpageshadow="2"
     inkscape:pageopacity="0.0"
     inkscape:pagecheckerboard="0"
     inkscape:deskcolor="#d1d1d1"
     inkscape:zoom="7.2849803"
     inkscape:cx="28.62053"
     inkscape:cy="15.511366"
     inkscape:window-width="1280"
     inkscape:window-height="665"
     inkscape:window-x="0"
     inkscape:window-y="25"
     inkscape:window-maximized="0"
     inkscape:current-layer="svg18" />
  <path
     d="m 28.517055,13.352195 0.0079,0.0077 0.0087,0.007 c 0.5585,0.4473 1.0549,0.8316 1.4918,1.1699 0.5778,0.4473 1.0517,0.8142 1.4279,1.14 0.6686,0.5788 0.9346,0.9543 0.9483,1.3143 0.0068,0.1785 -0.0474,0.3801 -0.1913,0.6325 -0.1449,0.2542 -0.3731,0.5467 -0.6963,0.9024 -0.4776,0.5256 -1.1392,1.1645 -1.9986,1.9944 -0.3074,0.2969 -0.6402,0.6183 -0.9989,0.9676 v 0 l -0.0046,0.0046 c -1.831,1.8844 -2.6529,2.6912 -3.7106,3.7295 -0.9064,0.8899 -1.986,1.9498 -4.0225,4.0036 -0.8163,0.7415 -1.4668,1.3935 -1.9996,1.9275 -0.2362,0.2367 -0.4492,0.4502 -0.6433,0.638 -0.3199,0.3096 -0.5861,0.5477 -0.8255,0.7163 -0.2388,0.1682 -0.4373,0.2574 -0.621,0.285 -0.3533,0.053 -0.7494,-0.1103 -1.3922,-0.6917 -0.6354,-0.5745 -1.4523,-1.5004 -2.6423,-2.8492 l -0.0102,-0.0116 -0.0434,-0.0491 -0.0626,-0.0197 c -1.7153,-0.539 -3.0620002,-1.5787 -4.3545002,-2.927 -0.816,-0.8513 -1.5976,-1.8106 -2.435,-2.8385 -0.496,-0.6087 -1.01159,-1.2415 -1.56548,-1.8901 -0.23614,-0.3639 -0.45863,-0.7042 -0.66725,-1.0232 -0.59796,-0.9145 -1.08199,-1.6547 -1.44697,-2.2779 -0.4968,-0.8483 -0.7466,-1.4382 -0.77557,-1.9174 -0.02735,-0.4524 0.14162,-0.8381 0.59172,-1.287 0.45742,-0.4562 1.17969,-0.9519 2.21746,-1.6168 0.56609,-0.2305 1.19109,-0.676 1.84819,-1.2488 0.6685,-0.5828 1.385,-1.3108 2.1247,-2.1116 0.74,-0.8010998 1.5068,-1.6790998 2.2753002,-2.5624998 0.0655,-0.0753 0.131,-0.1506 0.1966,-0.226 0.6991,-0.804 1.3981,-1.6078 2.0809,-2.36148 0.4809,-0.37424 0.8943,-0.71144 1.2569,-1.00722 l 0.0268,-0.02179 c 0.3743,-0.3053 0.6913,-0.56337 0.976,-0.77516 0.5731,-0.42622 0.9804,-0.63706 1.3992,-0.66751 0.4183,-0.03042 0.8935,0.11633 1.606,0.52289 0.7088,0.40439 1.6162,1.04374 2.8952,1.95572 0.6676,0.67105 1.4226,1.55145 2.3121,2.58855 0.2627,0.3062 0.537,0.6261 0.8243,0.9583 1.2628,1.4602 2.765,3.1454998 4.5917,4.9154998 z"
     fill="#fbf4e9"
     stroke="#a8773e"
     stroke-width="0.470749"
     id="path1" />
  <path
     d="m 20.941655,4.7097352 c 1.9113,2.08066 3.6013,4.40146 7.7392,8.4734598 z m 0,0 c 2.0384,2.83866 5.1265,4.82046 7.7392,8.4734598 z m 7.7392,8.4734598 c 5.0323,4.0061 4.5003,3.3941 0,8.4735 z m 0,0 c 3.3046,3.4977 4.8534,4.5663 0,8.4735 z m 0,8.4735 c -1.883,1.8689 -4.152,3.3046 -7.7392,7.7391 z m 0,0 c -2.9328,2.4291 -6.3175,6.0397 -7.7392,7.7391 z m -7.7392,7.7391 c -4.4109,5.1123 -4.6274,4.3403 -8.4734,0 z m 0,0 c -3.2811,4.618 -4.731,3.1964 -8.4734,0 z m -8.4734,0 c -2.7492002,-2.6927 -3.4836002,-4.1285 -8.4735002,-7.7391 z m 0,0 c -1.2663,-1.5064 -3.6107002,-2.8857 -8.4735002,-7.7391 z m -8.4735002,-7.7391 c -3.56828005,-3.6248 -3.84131005,-5.1594 0,-8.4735 z m 0,0 c -4.68866005,-4.7075 -3.40822005,-4.1567 0,-8.4735 z m 0,-8.4735 c 3.1634,-3.1775 6.6093002,-5.5783998 8.4735002,-8.4734598 z m 0,0 c 2.0572,-2.1513 4.1332,-3.7376998 8.4735002,-8.4734598 z M 12.468255,4.7097352 c 3.427,-3.69538 4.0108,-5.12174999 8.4734,0 z m 0,0 c 4.505,-4.18495999 4.2132,-3.50237 8.4734,0 z"
     fill="#fbf4e9"
     id="path2" />
  <path
     d="m 20.941655,4.7097352 c 1.9113,2.08066 3.6013,4.40146 7.7392,8.4734598 m -7.7392,-8.4734598 c 2.0384,2.83866 5.1265,4.82046 7.7392,8.4734598 m -7.7392,-8.4734598 c -4.4626,-5.12174999 -5.0464,-3.69538 -8.4734,0 m 8.4734,0 c -4.2602,-3.50237 -3.9684,-4.18495999 -8.4734,0 m 16.2126,8.4734598 c 5.0323,4.0061 4.5003,3.3941 0,8.4735 m 0,-8.4735 c 3.3046,3.4977 4.8534,4.5663 0,8.4735 m 0,0 c -1.883,1.8689 -4.152,3.3046 -7.7392,7.7391 m 7.7392,-7.7391 c -2.9328,2.4291 -6.3175,6.0397 -7.7392,7.7391 m 0,0 c -4.4109,5.1123 -4.6274,4.3403 -8.4734,0 m 8.4734,0 c -3.2811,4.618 -4.731,3.1964 -8.4734,0 m 0,0 c -2.7492002,-2.6927 -3.4836002,-4.1285 -8.4735002,-7.7391 m 8.4735002,7.7391 c -1.2663,-1.5064 -3.6107002,-2.8857 -8.4735002,-7.7391 m 0,0 c -3.56828005,-3.6248 -3.84131005,-5.1594 0,-8.4735 m 0,8.4735 c -4.68866005,-4.7075 -3.40822005,-4.1567 0,-8.4735 m 0,0 c 3.1634,-3.1775 6.6093002,-5.5783998 8.4735002,-8.4734598 M 3.9947548,13.183195 c 2.0572,-2.1513 4.1332,-3.7376998 8.4735002,-8.4734598"
     stroke="#a8773e"
     stroke-width="1.88299"
     stroke-linecap="round"
     id="path3" />
  <path
     d="m 38.592655,13.481395 0.0282,0.0375 0.0404,0.0239 c 1.3597,0.8021 2.2818,1.3734 2.8478,1.8672 0.56,0.4886 0.7197,0.8552 0.6629,1.2526 -0.0306,0.2145 -0.1269,0.4594 -0.3,0.7575 -0.1728,0.2975 -0.4146,0.6354 -0.724,1.0354 -0.2525,0.3265 -0.5459,0.6891 -0.8788,1.1004 -0.0747,0.0924 -0.1514,0.1872 -0.2301,0.2846 -0.4253,0.5265 -0.9059,1.1261 -1.4343,1.8157 -0.3295,0.317 -0.8283,0.7809 -1.423,1.3341 -0.6849,0.6371 -1.4972,1.3926 -2.3249,2.1784 -1.545,1.4669 -3.1367,3.0329 -3.9834,4.0703 l -0.0061,0.0076 -0.0055,0.008 c -0.9248,1.3461 -1.7038,2.3198 -2.399,2.9505 -0.6959,0.6313 -1.2789,0.8928 -1.8162,0.8753 -0.5381,-0.0175 -1.0946,-0.3166 -1.7327,-0.9583 -0.6371,-0.6408 -1.3273,-1.5946 -2.133,-2.8606 l -0.0215,-0.0338 -0.0315,-0.0248 c -2.0057,-1.5793 -3.3836,-3.1688 -4.5298,-4.4911 -0.1454,-0.1676 -0.287,-0.331 -0.4257,-0.4895 -1.1856,-1.3549 -2.1986,-2.4106 -3.5309,-2.6273 -0.2745,-0.3809 -0.5317,-0.7349 -0.7716,-1.0651 -0.6513,-0.8965 -1.1747,-1.6168 -1.5684,-2.2193 -0.5538,-0.8475 -0.8161,-1.4126 -0.8375,-1.8624 -0.0198,-0.4179 0.1692,-0.7818 0.6844,-1.2331 0.5222,-0.4575 1.3345,-0.9657 2.484,-1.6747 l 0.0227,-0.014 0.0189,-0.0187 c 0.9294,-0.9159 1.7149,-1.6159 2.4877,-2.3045 1.6389,-1.4603998 3.2209,-2.8701998 5.9978,-6.1816898 0.3096,-0.3397 0.5825,-0.64788 0.8286,-0.92567 0.4252,-0.48013 0.7701,-0.8695 1.0844,-1.17398 0.4918,-0.47648 0.8567,-0.69044 1.2611,-0.71002 0.4179,-0.02022 0.9329,0.16318 1.7306,0.63619 0.7742,0.45907 1.7734,1.1644 3.1591,2.14253 l 0.0298,0.021 c 0.0138,0.03146 0.031,0.06119 0.0484,0.08815 0.0382,0.05932 0.0904,0.12459 0.1504,0.19329 0.1207,0.1382 0.2944,0.3143 0.508,0.5235 0.1766,0.1729 0.378,0.3662 0.6036,0.5827 0.3346,0.3211 0.7224,0.6932 1.1614,1.1259 1.4532,1.432 3.3779,3.4412998 5.2677,5.9562998 z"
     fill="#fbf4e9"
     stroke="#a8773e"
     stroke-width="0.470749"
     id="path4" />
  <path
     d="m 31.055855,4.8665352 c 2.1136,2.84336 5.456,6.7505598 7.725,8.4734598 z m 0,0 c 3.2811,2.94216 6.1527,6.2044598 7.725,8.4734598 z m 7.725,8.4734598 c 4.5003,3.3941 3.427,3.5965 0,8.4735 z m 0,0 c 4.8534,4.5663 3.7001,4.924 0,8.4735 z m 0,8.4735 c -2.0572,1.1863 -2.7068,2.8104 -7.725,7.5743 z m 0,0 c -2.0007,1.7465 -3.3188,3.5447 -7.725,7.5743 z m -7.725,7.5743 c -4.6275,4.3403 -3.4035,4.5663 -8.4735,0 z m 0,0 c -4.731,3.1964 -4.9241,3.1917 -8.4735,0 z m -8.4735,0 c -2.6268,-3.4176 -7.1318,-6.3268 -8.4735,-7.5743 z m 0,0 c -2.8057,-1.9771 -4.731,-4.152 -8.4735,-7.5743 z m -8.4735,-7.5743 c -3.8413,-5.1594 -4.6274002,-4.6463 0,-8.4735 z m 0,0 c -3.4082,-4.1567 -3.4741,-3.5447 0,-8.4735 z m 0,-8.4735 c 3.6625,-2.5091 5.8373,-6.3126998 8.4735,-8.4734598 z m 0,0 c 3.0599,-2.6126 4.99,-5.1122998 8.4735,-8.4734598 z m 8.4735,-8.4734598 c 4.0108,-5.12174999 4.4721,-4.19436999 8.4735,0 z m 0,0 c 4.2132,-3.50237 4.9758,-5.10291999 8.4735,0 z"
     fill="#fbf4e9"
     id="path5" />
  <path
     d="m 31.055855,4.8665352 c 2.1136,2.84336 5.456,6.7505598 7.725,8.4734598 m -7.725,-8.4734598 c 3.2811,2.94216 6.1527,6.2044598 7.725,8.4734598 m -7.725,-8.4734598 c -4.0014,-4.19436999 -4.4627,-5.12174999 -8.4735,0 m 8.4735,0 c -3.4977,-5.10291999 -4.2603,-3.50237 -8.4735,0 m 16.1985,8.4734598 c 4.5003,3.3941 3.427,3.5965 0,8.4735 m 0,-8.4735 c 4.8534,4.5663 3.7001,4.924 0,8.4735 m 0,0 c -2.0572,1.1863 -2.7068,2.8104 -7.725,7.5743 m 7.725,-7.5743 c -2.0007,1.7465 -3.3188,3.5447 -7.725,7.5743 m 0,0 c -4.6275,4.3403 -3.4035,4.5663 -8.4735,0 m 8.4735,0 c -4.731,3.1964 -4.9241,3.1917 -8.4735,0 m 0,0 c -2.6268,-3.4176 -7.1318,-6.3268 -8.4735,-7.5743 m 8.4735,7.5743 c -2.8057,-1.9771 -4.731,-4.152 -8.4735,-7.5743 m 0,0 c -3.8413,-5.1594 -4.6274002,-4.6463 0,-8.4735 m 0,8.4735 c -3.4082,-4.1567 -3.4741,-3.5447 0,-8.4735 m 0,0 c 3.6625,-2.5091 5.8373,-6.3126998 8.4735,-8.4734598 m -8.4735,8.4734598 c 3.0599,-2.6126 4.99,-5.1122998 8.4735,-8.4734598"
     stroke="#a8773e"
     stroke-width="1.88299"
     stroke-linecap="round"
     id="path6" />
  <path
     d="m 41.754955,5.0430352 v 4e-5 l 0.0037,0.00277 c 0.3135,0.23295 0.6162,0.44885 0.9133,0.66065 0.8564,0.6107 1.6661,1.1881 2.5517,2.0452 1.1877,1.1495 2.5098,2.8030998 4.2116,5.6979998 l 0.0264,0.0449 0.0429,0.0296 c 0.1427,0.0984 0.2813,0.1936 0.4157,0.286 0.8731,0.6 1.5718,1.0801 2.0844,1.5256 0.5918,0.5144 0.888,0.9438 0.9371,1.4037 0.0495,0.4634 -0.1445,1.0254 -0.7098,1.8214 -0.5615,0.7906 -1.4607,1.7732 -2.7534,3.0697 -1.3432,1.1362 -2.4475,2.4854 -3.4647,3.7281 -0.2003,0.2449 -0.3974,0.4856 -0.5921,0.7197 -1.1991,1.4412 -2.3016,2.6167 -3.6043,3.0979 l -0.0465,0.0171 -0.0356,0.0345 c -0.1132,0.1095 -0.2226,0.2156 -0.3285,0.3181 -1.127,1.0914 -1.8508,1.7923 -2.3781,2.2011 -0.2875,0.2229 -0.4975,0.3433 -0.6667,0.3965 -0.158,0.0497 -0.2852,0.0424 -0.4217,-0.0096 -0.1486,-0.0566 -0.3139,-0.1683 -0.537,-0.3474 -0.103,-0.0827 -0.2139,-0.1759 -0.3384,-0.2807 l -0.0256,-0.0216 c -0.1343,-0.1129 -0.2829,-0.2375 -0.4486,-0.3712 -0.6553,-0.5285 -1.5734,-1.1946 -2.994,-1.8943 -2.1641,-3.9825 -5.5232,-6.7199 -8.5076,-7.6198 -0.5031,-0.6213 -0.9486,-1.1572 -1.3386,-1.6263 -0.4849,-0.5833 -0.884,-1.0635 -1.2015,-1.4766 -0.2883,-0.375 -0.4985,-0.6813 -0.6373,-0.9457 -0.1384,-0.2637 -0.1987,-0.4725 -0.202,-0.6547 -0.0062,-0.3528 0.2014,-0.6981 0.7754,-1.2291 0.3587,-0.3318 0.8299,-0.7103 1.4249,-1.1883 0.3511,-0.282 0.7453,-0.5986 1.1849,-0.9606 1.5068,-1.0643 2.9232,-2.5683 4.3093,-4.1057998 0.207,-0.2296 0.4133,-0.4599 0.6191,-0.6897 1.1819,-1.3197 2.3502,-2.624 3.5579,-3.68871 l 0.0223,-0.01972 0.0168,-0.02466 c 1.3712,-2.02036 2.3624,-2.72749 3.4661,-2.64256 0.569,0.0438 1.2011,0.29869 1.9676,0.76104 0.7652,0.46154 1.6423,1.11588 2.7009,1.93545 z"
     fill="#fbf4e9"
     stroke="#a8773e"
     stroke-width="0.470749"
     id="path7" />
  <path
     d="m 41.899055,4.8569552 c 2.1042,3.10694 4.9993,4.07664 7.7391,8.4734398 z m 0,0 c 3.3941,3.11164 6.0491,6.0020398 7.7391,8.4734398 z m 7.7391,8.4734398 c 3.427,3.5966 4.7734,4.5239 0,8.4735 z m 0,0 c 3.7001,4.9241 3.4129,4.2415 0,8.4735 z m 0,8.4735 c -1.5864,1.6476 -5.5031,4.6086 -7.7391,7.5932 z m 0,0 c -1.7418,2.0384 -3.4412,3.2105 -7.7391,7.5932 z m -7.7391,7.5932 c -3.4035,4.5663 -4.6698,3.3282 -8.4735,0 z m 0,0 c -4.924,3.1917 -3.4741,3.2952 -8.4735,0 z m -8.4735,0 c -2.6691,-2.2172 -3.5024,-2.3255 -8.4735,-7.5932 z m 0,0 c -2.2784,-2.0242 -5.0605,-5.1641 -8.4735,-7.5932 z m -8.4735,-7.5932 c -4.6274,-4.6463 -3.5164,-4.1661 0,-8.4735 z m 0,0 c -3.4741,-3.5447 -3.2905,-4.1473 0,-8.4735 z m 0,-8.4735 c 1.8171,-2.3867 5.3101,-4.8392998 8.4735,-8.4734398 z m 0,0 c 1.6288,-1.8406 4.0202,-4.6556998 8.4735,-8.4734398 z m 8.4735,-8.4734398 c 4.4721,-4.19436999 4.2179,-3.60122 8.4735,0 z m 0,0 c 4.9758,-5.10290999 3.1729,-4.86282999 8.4735,0 z"
     fill="#fbf4e9"
     id="path8" />
  <path
     d="m 41.899055,4.8569552 c 2.1042,3.10694 4.9993,4.07664 7.7391,8.4734398 m -7.7391,-8.4734398 c 3.3941,3.11164 6.0491,6.0020398 7.7391,8.4734398 m -7.7391,-8.4734398 c -4.2556,-3.60122 -4.0014,-4.19436999 -8.4735,0 m 8.4735,0 c -5.3006,-4.86282999 -3.4977,-5.10290999 -8.4735,0 m 16.2126,8.4734398 c 3.4271,3.5966 4.7734,4.5239 0,8.4735 m 0,-8.4735 c 3.7001,4.9241 3.4129,4.2415 0,8.4735 m 0,0 c -1.5864,1.6476 -5.5031,4.6086 -7.7391,7.5932 m 7.7391,-7.5932 c -1.7418,2.0384 -3.4412,3.2105 -7.7391,7.5932 m 0,0 c -3.4035,4.5663 -4.6698,3.3282 -8.4735,0 m 8.4735,0 c -4.924,3.1917 -3.4741,3.2952 -8.4735,0 m 0,0 c -2.6691,-2.2172 -3.5024,-2.3255 -8.4735,-7.5932 m 8.4735,7.5932 c -2.2784,-2.0242 -5.0605,-5.1641 -8.4735,-7.5932 m 0,0 c -4.6274,-4.6463 -3.5164,-4.1661 0,-8.4735 m 0,8.4735 c -3.4741,-3.5447 -3.2905,-4.1473 0,-8.4735 m 0,0 c 1.8171,-2.3867 5.3101,-4.8392998 8.4735,-8.4734398 m -8.4735,8.4734398 c 1.6288,-1.8406 4.0202,-4.6556998 8.4735,-8.4734398"
     stroke="#a8773e"
     stroke-width="1.88299"
     stroke-linecap="round"
     id="path9" />
  <path
     d="m 51.971255,4.8942052 0.0378,0.03 0.0466,0.01267 c 0.714,0.19398 1.2688,0.43112 1.7679,0.76662 0.5002,0.3361 0.9548,0.7779 1.4607,1.394 0.628,0.7648 1.3184,1.7759 2.2606,3.1557998 0.5915,0.8663 1.2823,1.8781 2.1193,3.0655 l 0.027,0.0384 0.0398,0.0251 c 1.2891,0.813 2.2505,1.5626 2.8897,2.268 0.6396,0.7058 0.9379,1.3464 0.946,1.9458 0.008,0.5955 -0.2701,1.2032 -0.8989,1.8466 -0.6305,0.6451 -1.5969,1.3081 -2.921,2.0058 l -0.0751,0.0395 -0.0325,0.0784 c -0.5644,1.3591 -1.6176,2.3703 -2.9834,3.5033 -0.2674,0.2219 -0.5466,0.4482 -0.8353,0.6823 -1.1769,0.9542 -2.5138,2.0381 -3.8734,3.4814 -1.3612,1.4107 -2.2026,2.0496 -3.2646,2.056 -0.5394,0.0032 -1.1578,-0.1567 -1.9541,-0.5046 -0.7845,-0.3428 -1.7249,-0.8604 -2.9127,-1.561 -2.1987,-3.6991 -4.8195,-5.5758 -8.5009,-7.7552 -1.166,-1.141 -1.9037,-1.9236 -2.3223,-2.5318 -0.4152,-0.6032 -0.49,-0.996 -0.3921,-1.375 0.1072,-0.415 0.4256,-0.8508 0.9332,-1.5263 l 0.0276,-0.0368 c 0.4914,-0.6539 1.1237,-1.4953 1.8052,-2.6839 0.1714,-0.2197 0.3466,-0.451 0.5312,-0.6946 1.3697,-1.8082 3.2516,-4.2924998 7.8864,-7.7212398 v 4e-5 l 0.0039,-0.00299 c 0.8726,-0.67407 1.5111,-1.26229 2.0146,-1.72604 0.1138,-0.10483 0.2207,-0.20331 0.3218,-0.29497 0.5626,-0.50992 0.9126,-0.77283 1.2762,-0.8335 0.3503,-0.05846 0.7705,0.06516 1.4893,0.52505 0.7143,0.45696 1.6709,1.20986 3.0815,2.32766 z"
     fill="#fbf4e9"
     stroke="#a8773e"
     stroke-width="0.470749"
     id="path10" />
  <path
     d="m 52.117355,4.7097752 c 2.8951,1.63822 5.0794,5.5736198 7.7391,8.4735198 z m 0,0 c 2.2173,1.79822 3.6907,4.10492 7.7391,8.4735198 z m 7.7391,8.4735198 c 4.7734,4.5238 3.7707,4.8345 0,8.4734 z m 0,0 c 3.413,4.2414 4.2274,3.8601 0,8.4734 z m 0,8.4734 c -2.6879,1.9631 -4.6321,2.9799 -7.7391,7.7391 z m 0,0 c -2.9092,2.8198 -4.9946,5.6349 -7.7391,7.7391 z m -7.7391,7.7391 c -4.6698,3.3329 -4.8345,3.3282 -8.4734,0 z m 0,0 c -3.4741,3.2953 -5.3006,4.7499 -8.4734,0 z m -8.4734,0 c -2.0384,-1.1533 -3.9355,-4.312 -8.4735,-7.7391 z m 0,0 c -2.8386,-3.1304 -6.2139,-5.5972 -8.4735,-7.7391 z m -8.4735,-7.7391 c -3.5165,-4.1661 -3.573,-3.6342 0,-8.4734 z m 0,0 c -3.2905,-4.1473 -4.1944,-3.7942 0,-8.4734 z m 0,-8.4734 c 3.4977,-2.881 6.0585,-5.7478998 8.4735,-8.4735198 z m 0,0 c 2.6079,-3.1399 5.4842,-5.3241998 8.4735,-8.4735198 z m 8.4735,-8.4735198 c 4.2179,-3.60123 4.8816,-4.98993999 8.4734,0 z m 0,0 c 3.1728,-4.86283999 3.2764,-5.18294999 8.4734,0 z"
     fill="#fbf4e9"
     id="path11" />
  <path
     d="m 52.117355,4.7097752 c 2.8951,1.63822 5.0794,5.5736198 7.7391,8.4735198 m -7.7391,-8.4735198 c 2.2173,1.79822 3.6907,4.10492 7.7391,8.4735198 m -7.7391,-8.4735198 c -3.5918,-4.98993999 -4.2555,-3.60123 -8.4734,0 m 8.4734,0 c -5.197,-5.18294999 -5.3006,-4.86283999 -8.4734,0 m 16.2125,8.4735198 c 4.7734,4.5238 3.7707,4.8345 0,8.4734 m 0,-8.4734 c 3.413,4.2414 4.2274,3.8601 0,8.4734 m 0,0 c -2.6879,1.9631 -4.6321,2.9799 -7.7391,7.7391 m 7.7391,-7.7391 c -2.9092,2.8198 -4.9946,5.6349 -7.7391,7.7391 m 0,0 c -4.6698,3.3329 -4.8345,3.3282 -8.4734,0 m 8.4734,0 c -3.4741,3.2953 -5.3006,4.7499 -8.4734,0 m 0,0 c -2.0384,-1.1533 -3.9355,-4.312 -8.4735,-7.7391 m 8.4735,7.7391 c -2.8386,-3.1304 -6.2139,-5.5972 -8.4735,-7.7391 m 0,0 c -3.5165,-4.1661 -3.573,-3.6342 0,-8.4734 m 0,8.4734 c -3.2905,-4.1473 -4.1944,-3.7942 0,-8.4734 m 0,0 c 3.4977,-2.881 6.0585,-5.7478998 8.4735,-8.4735198 m -8.4735,8.4735198 c 2.6079,-3.1399 5.4842,-5.3241998 8.4735,-8.4735198"
     stroke="#a8773e"
     stroke-width="1.88299"
     stroke-linecap="round"
     id="path12" />
  <path
     d="m 15.247555,1.6187452 c 5.2535,-0.10827 26.9739,-0.55548 32.3592,-0.64962999 z m 0.8191,-0.26362 c 5.1876,-0.07061 26.136,0.17889 31.366,0.22126 z"
     fill="#fbf4e9"
     id="path13" />
  <path
     d="m 15.247555,1.6187452 c 5.2535,-0.10827 26.9739,-0.55548 32.3592,-0.64962999 m -31.5401,0.38600999 c 5.1876,-0.07061 26.136,0.17889 31.366,0.22126"
     stroke="#a8773e"
     stroke-width="1.88299"
     stroke-linecap="round"
     id="path14" />
  <path
     d="m 16.183155,33.200495 c 5.423,-0.3484 26.4042,-1.1298 31.6201,-1.4311 z m -0.4143,-0.612 c 5.4277,-0.3013 26.5973,-0.0282 31.8367,-0.1647 z"
     fill="#fbf4e9"
     id="path15" />
  <path
     d="m 16.183155,33.200495 c 5.423,-0.3484 26.4042,-1.1298 31.6201,-1.4311 m -32.0344,0.8191 c 5.4277,-0.3013 26.5973,-0.0282 31.8367,-0.1647"
     stroke="#a8773e"
     stroke-width="1.88299"
     stroke-linecap="round"
     id="path16" />
  <path
     d="m 32.209955,16.624995 c -5.037,-0.0424 -25.0486002,-0.3249 -30.1844202,-0.3672 z m -0.4331,-0.5649 c -5.1453,0.0282 -25.2368002,0.5366 -30.1138002,0.659 z"
     fill="#fbf4e9"
     id="path17" />
  <path
     d="m 32.209955,16.624995 c -5.037,-0.0424 -25.0486002,-0.3249 -30.1844202,-0.3672 m 29.7513202,-0.1977 c -5.1453,0.0282 -25.2368002,0.5366 -30.1138002,0.659"
     stroke="#a8773e"
     stroke-width="1.88299"
     stroke-linecap="round"
     id="path18" />
  <path
     style="fill:#fbf4e9;fill-opacity:1;stroke:#ff0000;stroke-width:0.0999519"
     d=""
     id="path19" />
  <path
     style="fill:#fbf4e9;fill-opacity:1;stroke:none;stroke-width:0.0999519"
     d="M 31.968523,4.3278334 C 31.82398,4.1739535 31.435614,3.688225 31.105485,3.2484366 L 30.505252,2.4488215 31.444833,2.420214 c 0.51677,-0.015734 1.37812,-0.015734 1.914112,0 l 0.974531,0.028608 -1.051074,1.0793967 -1.051076,1.0793968 z"
     id="path20" />
  <path
     style="fill:#fbf4e9;fill-opacity:1;stroke:#ff0000;stroke-width:0.0999519"
     d=""
     id="path21" />
  <path
     style="fill:#fbf4e9;fill-opacity:1;stroke:none;stroke-width:0.0999519"
     d="m 21.061794,3.3564936 -0.771476,-0.8429499 1.474249,-0.032454 c 0.810837,-0.01785 1.483179,-0.030978 1.494094,-0.029174 0.01092,0.0018 -0.197786,0.2583167 -0.46378,0.5700289 -0.265995,0.3117121 -0.591173,0.704168 -0.722618,0.8721242 l -0.238992,0.3053749 z"
     id="path22" />
  <path
     style="fill:#fbf4e9;fill-opacity:1;stroke:none;stroke-width:0.0999519"
     d="m 21.106299,30.810172 c 0.28577,-0.371071 0.546927,-0.707933 0.580349,-0.748581 0.03342,-0.04065 0.431209,0.262956 0.883969,0.674675 l 0.823201,0.748581 h -1.40355 -1.40355 z"
     id="path23" />
  <path
     style="fill:#fbf4e9;fill-opacity:1;stroke:none;stroke-width:0.0999519"
     d="m 30.938241,30.877415 c 0.32812,-0.334088 0.755093,-0.734627 0.948828,-0.890087 l 0.352246,-0.282655 0.962966,0.826002 0.962966,0.826003 -0.815453,0.06349 c -0.448498,0.03492 -1.308806,0.06376 -1.911794,0.06409 l -1.096342,5.99e-4 z"
     id="path24" />
  <path
     style="fill:#fbf4e9;fill-opacity:1;stroke:none;stroke-width:0.0999519"
     d="m 42.068381,30.809428 c 0.435824,-0.594112 0.665415,-0.819749 0.761575,-0.748457 0.146028,0.108264 0.675605,0.832005 0.634225,0.866757 -0.0193,0.0162 -0.386489,0.05789 -0.815985,0.09264 l -0.780904,0.06318 z"
     id="path25" />
  <path
     style="fill:#fbf4e9;fill-opacity:1;stroke:none;stroke-width:0.0999519"
     d="M 41.768811,3.3469536 40.908137,2.4987974 h 1.491272 c 1.16561,0 1.475209,0.027284 1.41772,0.1249399 -0.289978,0.4925792 -1.057106,1.5739771 -1.115727,1.5728074 -0.03956,-7.892e-4 -0.459221,-0.3831052 -0.932591,-0.8495911 z"
     id="path26" />
</svg>
