<?xml version="1.0" encoding="UTF-8" standalone="no"?>
<svg
   width="74"
   height="44"
   viewBox="0 0 74 44"
   fill="none"
   version="1.1"
   id="svg18"
   sodipodi:docname="logo-light copy.svg"
   inkscape:version="1.4 (e7c3feb1, 2024-10-09)"
   xmlns:inkscape="http://www.inkscape.org/namespaces/inkscape"
   xmlns:sodipodi="http://sodipodi.sourceforge.net/DTD/sodipodi-0.dtd"
   xmlns="http://www.w3.org/2000/svg"
   xmlns:svg="http://www.w3.org/2000/svg">
  <defs
     id="defs18" />
  <sodipodi:namedview
     id="namedview18"
     pagecolor="#ffffff"
     bordercolor="#000000"
     borderopacity="0.25"
     inkscape:showpageshadow="2"
     inkscape:pageopacity="0.0"
     inkscape:pagecheckerboard="0"
     inkscape:deskcolor="#d1d1d1"
     inkscape:zoom="10.138322"
     inkscape:cx="30.872961"
     inkscape:cy="23.376651"
     inkscape:window-width="1104"
     inkscape:window-height="713"
     inkscape:window-x="0"
     inkscape:window-y="25"
     inkscape:window-maximized="0"
     inkscape:current-layer="svg18" />
  <path
     d="M33.7154 18.1531L33.7233 18.1608L33.732 18.1678C34.2905 18.6151 34.7869 18.9994 35.2238 19.3377C35.8016 19.785 36.2755 20.1519 36.6517 20.4777C37.3203 21.0565 37.5863 21.432 37.6 21.792C37.6068 21.9705 37.5526 22.1721 37.4087 22.4245C37.2638 22.6787 37.0356 22.9712 36.7124 23.3269C36.2348 23.8525 35.5732 24.4914 34.7138 25.3213C34.4064 25.6182 34.0736 25.9396 33.7149 26.2889L33.7149 26.2889L33.7103 26.2935C31.8793 28.1779 31.0574 28.9847 29.9997 30.023C29.0933 30.9129 28.0137 31.9728 25.9772 34.0266C25.1609 34.7681 24.5104 35.4201 23.9776 35.9541C23.7414 36.1908 23.5284 36.4043 23.3343 36.5921C23.0144 36.9017 22.7482 37.1398 22.5088 37.3084C22.27 37.4766 22.0715 37.5658 21.8878 37.5934C21.5345 37.6464 21.1384 37.4831 20.4956 36.9017C19.8602 36.3272 19.0433 35.4013 17.8533 34.0525L17.8431 34.0409L17.7997 33.9918L17.7371 33.9721C16.0218 33.4331 14.6751 32.3934 13.3826 31.0451C12.5666 30.1938 11.785 29.2345 10.9476 28.2066C10.4516 27.5979 9.93601 26.9651 9.38212 26.3165C9.14598 25.9526 8.92349 25.6123 8.71487 25.2933C8.11691 24.3788 7.63288 23.6386 7.2679 23.0154C6.7711 22.1671 6.5213 21.5772 6.49233 21.098C6.46498 20.6456 6.63395 20.2599 7.08405 19.811C7.54147 19.3548 8.26374 18.8591 9.30151 18.1942C9.8676 17.9637 10.4926 17.5182 11.1497 16.9454C11.8182 16.3626 12.5347 15.6346 13.2744 14.8338C14.0144 14.0327 14.7812 13.1547 15.5497 12.2713C15.6152 12.196 15.6807 12.1207 15.7463 12.0453C16.4454 11.2413 17.1444 10.4375 17.8272 9.68382C18.3081 9.30958 18.7215 8.97238 19.0841 8.6766L19.1109 8.65481C19.4852 8.34951 19.8022 8.09144 20.0869 7.87965C20.66 7.45343 21.0673 7.24259 21.4861 7.21214C21.9044 7.18172 22.3796 7.32847 23.0921 7.73503C23.8009 8.13942 24.7083 8.77877 25.9873 9.69075C26.6549 10.3618 27.4099 11.2422 28.2994 12.2793C28.5621 12.5855 28.8364 12.9054 29.1237 13.2376C30.3865 14.6978 31.8887 16.3831 33.7154 18.1531Z"
     fill="#FBF4E9"
     stroke="#A8773E"
     stroke-width="0.470749"
     id="path1"
     style="fill:#292928;fill-opacity:1" />
  <path
     d="M26.14 9.51064C28.0513 11.5913 29.7413 13.9121 33.8792 17.9841L26.14 9.51064ZM26.14 9.51064C28.1784 12.3493 31.2665 14.3311 33.8792 17.9841L26.14 9.51064ZM33.8792 17.9841C38.9115 21.9902 38.3795 21.3782 33.8792 26.4576V17.9841ZM33.8792 17.9841C37.1838 21.4818 38.7326 22.5504 33.8792 26.4576V17.9841ZM33.8792 26.4576C31.9962 28.3265 29.7272 29.7622 26.14 34.1967L33.8792 26.4576ZM33.8792 26.4576C30.9464 28.8867 27.5617 32.4973 26.14 34.1967L33.8792 26.4576ZM26.14 34.1967C21.7291 39.309 21.5126 38.537 17.6666 34.1967H26.14ZM26.14 34.1967C22.8589 38.8147 21.409 37.3931 17.6666 34.1967H26.14ZM17.6666 34.1967C14.9174 31.504 14.183 30.0682 9.1931 26.4576L17.6666 34.1967ZM17.6666 34.1967C16.4003 32.6903 14.0559 31.311 9.1931 26.4576L17.6666 34.1967ZM9.1931 26.4576C5.62482 22.8328 5.35179 21.2982 9.1931 17.9841V26.4576ZM9.1931 26.4576C4.50444 21.7501 5.78488 22.3009 9.1931 17.9841V26.4576ZM9.1931 17.9841C12.3565 14.8066 15.8024 12.4057 17.6666 9.51064L9.1931 17.9841ZM9.1931 17.9841C11.2503 15.8328 13.3263 14.2464 17.6666 9.51064L9.1931 17.9841ZM17.6666 9.51064C21.0936 5.81526 21.6774 4.38889 26.14 9.51064H17.6666ZM17.6666 9.51064C22.1716 5.32568 21.8798 6.00827 26.14 9.51064H17.6666Z"
     fill="#FBF4E9"
     id="path2"
     style="fill:#292928;fill-opacity:1" />
  <path
     d="M26.14 9.51064C28.0513 11.5913 29.7413 13.9121 33.8792 17.9841M26.14 9.51064C28.1784 12.3493 31.2665 14.3311 33.8792 17.9841M26.14 9.51064C21.6774 4.38889 21.0936 5.81526 17.6666 9.51064M26.14 9.51064C21.8798 6.00827 22.1716 5.32568 17.6666 9.51064M33.8792 17.9841C38.9115 21.9902 38.3795 21.3782 33.8792 26.4576M33.8792 17.9841C37.1838 21.4818 38.7326 22.5504 33.8792 26.4576M33.8792 26.4576C31.9962 28.3265 29.7272 29.7622 26.14 34.1967M33.8792 26.4576C30.9464 28.8867 27.5617 32.4973 26.14 34.1967M26.14 34.1967C21.7291 39.309 21.5126 38.537 17.6666 34.1967M26.14 34.1967C22.8589 38.8147 21.409 37.3931 17.6666 34.1967M17.6666 34.1967C14.9174 31.504 14.183 30.0682 9.1931 26.4576M17.6666 34.1967C16.4003 32.6903 14.0559 31.311 9.1931 26.4576M9.1931 26.4576C5.62482 22.8328 5.35179 21.2982 9.1931 17.9841M9.1931 26.4576C4.50444 21.7501 5.78488 22.3009 9.1931 17.9841M9.1931 17.9841C12.3565 14.8066 15.8024 12.4057 17.6666 9.51064M9.1931 17.9841C11.2503 15.8328 13.3263 14.2464 17.6666 9.51064"
     stroke="#A8773E"
     stroke-width="1.88299"
     stroke-linecap="round"
     id="path3"
     style="fill:#292928;fill-opacity:1;stroke:#fbf4e9;stroke-opacity:1" />
  <path
     d="M43.791 18.2823L43.8192 18.3198L43.8596 18.3437C45.2193 19.1458 46.1414 19.7171 46.7074 20.2109C47.2674 20.6995 47.4271 21.0661 47.3703 21.4635C47.3397 21.678 47.2434 21.9229 47.0703 22.221C46.8975 22.5185 46.6557 22.8564 46.3463 23.2564C46.0938 23.5829 45.8004 23.9455 45.4675 24.3568C45.3928 24.4492 45.3161 24.544 45.2374 24.6414C44.8121 25.1679 44.3315 25.7675 43.8031 26.4571C43.4736 26.7741 42.9748 27.238 42.3801 27.7912C41.6952 28.4283 40.8829 29.1838 40.0552 29.9696C38.5102 31.4365 36.9185 33.0025 36.0718 34.0399L36.0657 34.0475L36.0602 34.0555C35.1354 35.4016 34.3564 36.3753 33.6612 37.006C32.9653 37.6373 32.3823 37.8988 31.845 37.8813C31.3069 37.8638 30.7504 37.5647 30.1123 36.923C29.4752 36.2822 28.785 35.3284 27.9793 34.0624L27.9578 34.0286L27.9263 34.0038C25.9206 32.4245 24.5427 30.835 23.3965 29.5127C23.2511 29.3451 23.1095 29.1817 22.9708 29.0232C21.7852 27.6683 20.7722 26.6126 19.4399 26.3959C19.1654 26.015 18.9082 25.661 18.6683 25.3308C18.017 24.4343 17.4936 23.714 17.0999 23.1115C16.5461 22.264 16.2838 21.6989 16.2624 21.2491C16.2426 20.8312 16.4316 20.4673 16.9468 20.016C17.469 19.5585 18.2813 19.0503 19.4308 18.3413L19.4535 18.3273L19.4724 18.3086C20.4018 17.3927 21.1873 16.6927 21.9601 16.0041C23.599 14.5437 25.181 13.1339 27.9579 9.82241C28.2675 9.48271 28.5404 9.17453 28.7865 8.89674C29.2117 8.41661 29.5566 8.02724 29.8709 7.72276C30.3627 7.24628 30.7276 7.03232 31.132 7.01274C31.5499 6.99252 32.0649 7.17592 32.8626 7.64893C33.6368 8.108 34.636 8.81333 36.0217 9.79146L36.0515 9.81246C36.0653 9.84392 36.0825 9.87365 36.0999 9.90061C36.1381 9.95993 36.1903 10.0252 36.2503 10.0939C36.371 10.2321 36.5447 10.4082 36.7583 10.6174C36.9349 10.7903 37.1363 10.9836 37.3619 11.2001C37.6965 11.5212 38.0843 11.8933 38.5233 12.326C39.9765 13.758 41.9012 15.7673 43.791 18.2823Z"
     fill="#FBF4E9"
     stroke="#A8773E"
     stroke-width="0.470749"
     id="path4"
     style="fill:#292928;fill-opacity:1" />
  <path
     d="M36.2542 9.66744C38.3678 12.5108 41.7102 16.418 43.9792 18.1409L36.2542 9.66744ZM36.2542 9.66744C39.5353 12.6096 42.4069 15.8719 43.9792 18.1409L36.2542 9.66744ZM43.9792 18.1409C48.4795 21.535 47.4062 21.7374 43.9792 26.6144V18.1409ZM43.9792 18.1409C48.8326 22.7072 47.6793 23.0649 43.9792 26.6144V18.1409ZM43.9792 26.6144C41.922 27.8007 41.2724 29.4248 36.2542 34.1887L43.9792 26.6144ZM43.9792 26.6144C41.9785 28.3609 40.6604 30.1591 36.2542 34.1887L43.9792 26.6144ZM36.2542 34.1887C31.6267 38.529 32.8507 38.755 27.7807 34.1887H36.2542ZM36.2542 34.1887C31.5232 37.3851 31.3301 37.3804 27.7807 34.1887H36.2542ZM27.7807 34.1887C25.1539 30.7711 20.6489 27.8619 19.3072 26.6144L27.7807 34.1887ZM27.7807 34.1887C24.975 32.2116 23.0497 30.0367 19.3072 26.6144L27.7807 34.1887ZM19.3072 26.6144C15.4659 21.455 14.6798 21.9681 19.3072 18.1409V26.6144ZM19.3072 26.6144C15.899 22.4577 15.8331 23.0697 19.3072 18.1409V26.6144ZM19.3072 18.1409C22.9697 15.6318 25.1445 11.8282 27.7807 9.66744L19.3072 18.1409ZM19.3072 18.1409C22.3671 15.5283 24.2972 13.0286 27.7807 9.66744L19.3072 18.1409ZM27.7807 9.66744C31.7915 4.54569 32.2528 5.47307 36.2542 9.66744H27.7807ZM27.7807 9.66744C31.9939 6.16507 32.7565 4.56452 36.2542 9.66744H27.7807Z"
     fill="#FBF4E9"
     id="path5"
     style="fill:#292928;fill-opacity:1" />
  <path
     d="M36.2542 9.66744C38.3678 12.5108 41.7102 16.418 43.9792 18.1409M36.2542 9.66744C39.5353 12.6096 42.4069 15.8719 43.9792 18.1409M36.2542 9.66744C32.2528 5.47307 31.7915 4.54569 27.7807 9.66744M36.2542 9.66744C32.7565 4.56452 31.9939 6.16507 27.7807 9.66744M43.9792 18.1409C48.4795 21.535 47.4062 21.7374 43.9792 26.6144M43.9792 18.1409C48.8326 22.7072 47.6793 23.0649 43.9792 26.6144M43.9792 26.6144C41.922 27.8007 41.2724 29.4248 36.2542 34.1887M43.9792 26.6144C41.9785 28.3609 40.6604 30.1591 36.2542 34.1887M36.2542 34.1887C31.6267 38.529 32.8507 38.755 27.7807 34.1887M36.2542 34.1887C31.5232 37.3851 31.3301 37.3804 27.7807 34.1887M27.7807 34.1887C25.1539 30.7711 20.6489 27.8619 19.3072 26.6144M27.7807 34.1887C24.975 32.2116 23.0497 30.0367 19.3072 26.6144M19.3072 26.6144C15.4659 21.455 14.6798 21.9681 19.3072 18.1409M19.3072 26.6144C15.899 22.4577 15.8331 23.0697 19.3072 18.1409M19.3072 18.1409C22.9697 15.6318 25.1445 11.8282 27.7807 9.66744M19.3072 18.1409C22.3671 15.5283 24.2972 13.0286 27.7807 9.66744"
     stroke="#A8773E"
     stroke-width="1.88299"
     stroke-linecap="round"
     id="path6"
     style="fill:#292928;fill-opacity:1;stroke:#fbf4e9;stroke-opacity:1" />
  <path
     d="M46.9533 9.84394L46.9533 9.84398L46.957 9.84675C47.2705 10.0797 47.5732 10.2956 47.8703 10.5074C48.7267 11.1181 49.5364 11.6955 50.422 12.5526C51.6097 13.7021 52.9318 15.3557 54.6336 18.2506L54.66 18.2955L54.7029 18.3251C54.8456 18.4235 54.9842 18.5187 55.1186 18.6111C55.9917 19.2111 56.6904 19.6912 57.203 20.1367C57.7948 20.6511 58.091 21.0805 58.1401 21.5404C58.1896 22.0038 57.9956 22.5658 57.4303 23.3618C56.8688 24.1524 55.9696 25.135 54.6769 26.4315C53.3337 27.5677 52.2294 28.9169 51.2122 30.1596C51.0119 30.4045 50.8148 30.6452 50.6201 30.8793C49.421 32.3205 48.3185 33.496 47.0158 33.9772L46.9693 33.9943L46.9337 34.0288C46.8205 34.1383 46.7111 34.2444 46.6052 34.3469C45.4782 35.4383 44.7544 36.1392 44.2271 36.548C43.9396 36.7709 43.7296 36.8913 43.5604 36.9445C43.4024 36.9942 43.2752 36.9869 43.1387 36.9349C42.9901 36.8783 42.8248 36.7666 42.6017 36.5875C42.4987 36.5048 42.3878 36.4116 42.2633 36.3068L42.2377 36.2852C42.1034 36.1723 41.9548 36.0477 41.7891 35.914C41.1338 35.3855 40.2157 34.7194 38.7951 34.0197C36.631 30.0372 33.2719 27.2998 30.2875 26.3999C29.7844 25.7786 29.3389 25.2427 28.9489 24.7736C28.464 24.1903 28.0649 23.7101 27.7474 23.297C27.4591 22.922 27.2489 22.6157 27.1101 22.3513C26.9717 22.0876 26.9114 21.8788 26.9081 21.6966C26.9019 21.3438 27.1095 20.9985 27.6835 20.4675C28.0422 20.1357 28.5134 19.7572 29.1084 19.2792C29.4595 18.9972 29.8537 18.6806 30.2933 18.3186C31.8001 17.2543 33.2165 15.7503 34.6026 14.2128C34.8096 13.9832 35.0159 13.7529 35.2217 13.5231C36.4036 12.2034 37.5719 10.8991 38.7796 9.83439L38.8019 9.81467L38.8187 9.79001C40.1899 7.76965 41.1811 7.06252 42.2848 7.14745C42.8538 7.19125 43.4859 7.44614 44.2524 7.90849C45.0176 8.37003 45.8947 9.02437 46.9533 9.84394Z"
     fill="#FBF4E9"
     stroke="#A8773E"
     stroke-width="0.470749"
     id="path7"
     style="fill:#292928;fill-opacity:1;stroke:#fbf4e9;stroke-opacity:1" />
  <path
     d="M47.0974 9.65786C49.2016 12.7648 52.0967 13.7345 54.8365 18.1313L47.0974 9.65786ZM47.0974 9.65786C50.4915 12.7695 53.1465 15.6599 54.8365 18.1313L47.0974 9.65786ZM54.8365 18.1313C58.2635 21.7279 59.6099 22.6552 54.8365 26.6048V18.1313ZM54.8365 18.1313C58.5366 23.0554 58.2494 22.3728 54.8365 26.6048V18.1313ZM54.8365 26.6048C53.2501 28.2524 49.3334 31.2134 47.0974 34.198L54.8365 26.6048ZM54.8365 26.6048C53.0947 28.6432 51.3953 29.8153 47.0974 34.198L54.8365 26.6048ZM47.0974 34.198C43.6939 38.7643 42.4276 37.5262 38.6239 34.198H47.0974ZM47.0974 34.198C42.1734 37.3897 43.6233 37.4932 38.6239 34.198H47.0974ZM38.6239 34.198C35.9548 31.9808 35.1215 31.8725 30.1504 26.6048L38.6239 34.198ZM38.6239 34.198C36.3455 32.1738 33.5634 29.0339 30.1504 26.6048L38.6239 34.198ZM30.1504 26.6048C25.523 21.9585 26.634 22.4387 30.1504 18.1313V26.6048ZM30.1504 26.6048C26.6763 23.0601 26.8599 22.4575 30.1504 18.1313V26.6048ZM30.1504 18.1313C31.9675 15.7446 35.4605 13.292 38.6239 9.65786L30.1504 18.1313ZM30.1504 18.1313C31.7792 16.2907 34.1706 13.4756 38.6239 9.65786L30.1504 18.1313ZM38.6239 9.65786C43.096 5.46349 42.8418 6.05664 47.0974 9.65786H38.6239ZM38.6239 9.65786C43.5997 4.55495 41.7968 4.79503 47.0974 9.65786H38.6239Z"
     fill="#FBF4E9"
     id="path8"
     style="fill:#292928;fill-opacity:1" />
  <path
     d="M47.0974 9.65786C49.2016 12.7648 52.0967 13.7345 54.8365 18.1313M47.0974 9.65786C50.4915 12.7695 53.1465 15.6599 54.8365 18.1313M47.0974 9.65786C42.8418 6.05664 43.096 5.46349 38.6239 9.65786M47.0974 9.65786C41.7968 4.79503 43.5997 4.55495 38.6239 9.65786M54.8365 18.1313C58.2636 21.7279 59.6099 22.6552 54.8365 26.6048M54.8365 18.1313C58.5366 23.0554 58.2494 22.3728 54.8365 26.6048M54.8365 26.6048C53.2501 28.2524 49.3334 31.2134 47.0974 34.198M54.8365 26.6048C53.0947 28.6432 51.3953 29.8153 47.0974 34.198M47.0974 34.198C43.6939 38.7643 42.4276 37.5262 38.6239 34.198M47.0974 34.198C42.1734 37.3897 43.6233 37.4932 38.6239 34.198M38.6239 34.198C35.9548 31.9808 35.1215 31.8725 30.1504 26.6048M38.6239 34.198C36.3455 32.1738 33.5634 29.0339 30.1504 26.6048M30.1504 26.6048C25.523 21.9585 26.634 22.4387 30.1504 18.1313M30.1504 26.6048C26.6763 23.0601 26.8599 22.4575 30.1504 18.1313M30.1504 18.1313C31.9675 15.7446 35.4605 13.292 38.6239 9.65786M30.1504 18.1313C31.7792 16.2907 34.1706 13.4756 38.6239 9.65786"
     stroke="#A8773E"
     stroke-width="1.88299"
     stroke-linecap="round"
     id="path9"
     style="fill:#292928;fill-opacity:1;stroke:#fbf4e9;stroke-opacity:1" />
  <path
     d="M57.1696 9.69511L57.2074 9.72511L57.254 9.73778C57.968 9.93176 58.5228 10.1689 59.0219 10.5044C59.5221 10.8405 59.9767 11.2823 60.4826 11.8984C61.1106 12.6632 61.801 13.6743 62.7432 15.0542C63.3347 15.9205 64.0255 16.9323 64.8625 18.1197L64.8895 18.1581L64.9293 18.1832C66.2184 18.9962 67.1798 19.7458 67.819 20.4512C68.4586 21.157 68.7569 21.7976 68.765 22.397C68.773 22.9925 68.4949 23.6002 67.8661 24.2436C67.2356 24.8887 66.2692 25.5517 64.9451 26.2494L64.87 26.2889L64.8375 26.3673C64.2731 27.7264 63.2199 28.7376 61.8541 29.8706C61.5867 30.0925 61.3075 30.3188 61.0188 30.5529C59.8419 31.5071 58.505 32.591 57.1454 34.0343C55.7842 35.445 54.9428 36.0839 53.8808 36.0903C53.3414 36.0935 52.723 35.9336 51.9267 35.5857C51.1422 35.2429 50.2018 34.7253 49.014 34.0247C46.8153 30.3256 44.1945 28.4489 40.5131 26.2695C39.3471 25.1285 38.6094 24.3459 38.1908 23.7377C37.7756 23.1345 37.7008 22.7417 37.7987 22.3627C37.9059 21.9477 38.2243 21.5119 38.7319 20.8364L38.7595 20.7996C39.2509 20.1457 39.8832 19.3043 40.5647 18.1157C40.7361 17.896 40.9113 17.6647 41.0959 17.4211C42.4656 15.6129 44.3475 13.1286 48.9823 9.69986L48.9823 9.6999L48.9862 9.69691C49.8588 9.02284 50.4973 8.43462 51.0008 7.97087C51.1146 7.86604 51.2215 7.76756 51.3226 7.6759C51.8852 7.16598 52.2352 6.90307 52.5988 6.8424C52.9491 6.78394 53.3693 6.90756 54.0881 7.36745C54.8024 7.82441 55.759 8.57731 57.1696 9.69511Z"
     fill="#FBF4E9"
     stroke="#A8773E"
     stroke-width="0.470749"
     id="path10"
     style="fill:#292928;fill-opacity:1" />
  <path
     d="M57.3157 9.51068C60.2108 11.1489 62.3951 15.0843 65.0548 17.9842L57.3157 9.51068ZM57.3157 9.51068C59.533 11.3089 61.0064 13.6156 65.0548 17.9842L57.3157 9.51068ZM65.0548 17.9842C69.8282 22.508 68.8255 22.8187 65.0548 26.4576V17.9842ZM65.0548 17.9842C68.4678 22.2256 69.2822 21.8443 65.0548 26.4576V17.9842ZM65.0548 26.4576C62.3669 28.4207 60.4227 29.4375 57.3157 34.1967L65.0548 26.4576ZM65.0548 26.4576C62.1456 29.2774 60.0602 32.0925 57.3157 34.1967L65.0548 26.4576ZM57.3157 34.1967C52.6459 37.5296 52.4812 37.5249 48.8423 34.1967H57.3157ZM57.3157 34.1967C53.8416 37.492 52.0151 38.9466 48.8423 34.1967H57.3157ZM48.8423 34.1967C46.8039 33.0434 44.9068 29.8847 40.3688 26.4576L48.8423 34.1967ZM48.8423 34.1967C46.0037 31.0663 42.6284 28.5995 40.3688 26.4576L48.8423 34.1967ZM40.3688 26.4576C36.8523 22.2915 36.7958 22.8234 40.3688 17.9842V26.4576ZM40.3688 26.4576C37.0783 22.3103 36.1744 22.6634 40.3688 17.9842V26.4576ZM40.3688 17.9842C43.8665 15.1032 46.4273 12.2363 48.8423 9.51068L40.3688 17.9842ZM40.3688 17.9842C42.9767 14.8443 45.853 12.66 48.8423 9.51068L40.3688 17.9842ZM48.8423 9.51068C53.0602 5.90945 53.7239 4.52074 57.3157 9.51068H48.8423ZM48.8423 9.51068C52.0151 4.64784 52.1187 4.32773 57.3157 9.51068H48.8423Z"
     fill="#FBF4E9"
     id="path11"
     style="fill:#292928;fill-opacity:1" />
  <path
     d="M57.3157 9.51068C60.2108 11.1489 62.3951 15.0843 65.0548 17.9842M57.3157 9.51068C59.533 11.3089 61.0064 13.6156 65.0548 17.9842M57.3157 9.51068C53.7239 4.52074 53.0602 5.90945 48.8423 9.51068M57.3157 9.51068C52.1187 4.32773 52.0151 4.64784 48.8423 9.51068M65.0548 17.9842C69.8282 22.508 68.8255 22.8187 65.0548 26.4576M65.0548 17.9842C68.4678 22.2256 69.2822 21.8443 65.0548 26.4576M65.0548 26.4576C62.3669 28.4207 60.4227 29.4375 57.3157 34.1967M65.0548 26.4576C62.1456 29.2774 60.0602 32.0925 57.3157 34.1967M57.3157 34.1967C52.6459 37.5296 52.4812 37.5249 48.8423 34.1967M57.3157 34.1967C53.8416 37.492 52.0151 38.9466 48.8423 34.1967M48.8423 34.1967C46.8039 33.0434 44.9068 29.8847 40.3688 26.4576M48.8423 34.1967C46.0037 31.0663 42.6284 28.5995 40.3688 26.4576M40.3688 26.4576C36.8523 22.2915 36.7958 22.8234 40.3688 17.9842M40.3688 26.4576C37.0783 22.3103 36.1744 22.6634 40.3688 17.9842M40.3688 17.9842C43.8665 15.1032 46.4273 12.2363 48.8423 9.51068M40.3688 17.9842C42.9767 14.8443 45.853 12.66 48.8423 9.51068"
     stroke="#A8773E"
     stroke-width="1.88299"
     stroke-linecap="round"
     id="path12"
     style="fill:#292928;fill-opacity:1;stroke:#fbf4e9;stroke-opacity:1" />
  <path
     d="M20.4459 6.41965C25.6994 6.31138 47.4198 5.86417 52.8051 5.77002L20.4459 6.41965ZM21.265 6.15603C26.4526 6.08542 47.401 6.33492 52.631 6.37729L21.265 6.15603Z"
     fill="#FBF4E9"
     id="path13"
     style="fill:#292928;fill-opacity:1" />
  <path
     d="M20.4459 6.41965C25.6994 6.31138 47.4198 5.86417 52.8051 5.77002M21.265 6.15603C26.4526 6.08542 47.401 6.33492 52.631 6.37729"
     stroke="#A8773E"
     stroke-width="1.88299"
     stroke-linecap="round"
     id="path14"
     style="fill:#292928;fill-opacity:1;stroke:#fbf4e9;stroke-opacity:1" />
  <path
     d="M21.3815 38.0014C26.8045 37.653 47.7857 36.8716 53.0016 36.5703L21.3815 38.0014ZM20.9672 37.3894C26.3949 37.0881 47.5645 37.3612 52.8039 37.2247L20.9672 37.3894Z"
     fill="#FBF4E9"
     id="path15"
     style="fill:#292928;fill-opacity:1" />
  <path
     d="M21.3815 38.0014C26.8045 37.653 47.7857 36.8716 53.0016 36.5703M20.9672 37.3894C26.3949 37.0881 47.5645 37.3612 52.8039 37.2247"
     stroke="#A8773E"
     stroke-width="1.88299"
     stroke-linecap="round"
     id="path16"
     style="fill:#292928;fill-opacity:1;stroke:#fbf4e9;stroke-opacity:1" />
  <path
     d="M37.4083 21.4259C32.3713 21.3835 12.3597 21.101 7.22388 21.0587L37.4083 21.4259ZM36.9752 20.861C31.8299 20.8892 11.7384 21.3976 6.8614 21.52L36.9752 20.861Z"
     fill="#FBF4E9"
     id="path17"
     style="fill:#292928;fill-opacity:1" />
  <path
     d="M37.4083 21.4259C32.3713 21.3835 12.3597 21.101 7.22388 21.0587M36.9752 20.861C31.8299 20.8892 11.7384 21.3976 6.8614 21.52"
     stroke="#A8773E"
     stroke-width="1.88299"
     stroke-linecap="round"
     id="path18"
     style="fill:#292928;fill-opacity:1;stroke:#fbf4e9;stroke-opacity:1" />
</svg>
